HIERARCHY
ROOT Pelvis
{

	OFFSET     0.000000     0.000000     0.000000
	CHANNELS 6 Xposition Yposition Zposition Zrotation Xrotation Yrotation
	JOINT LowerBack
	{

		OFFSET    -0.000691     0.176488     0.017766
		CHANNELS 3 Zrotation Xrotation Yrotation
		JOINT Chest
		{

			OFFSET    -0.002754     0.128976    -0.000512
			CHANNELS 3 Zrotation Xrotation Yrotation
			JOINT back3
			{

				OFFSET     0.002471     0.201657    -0.000850
				CHANNELS 3 Zrotation Xrotation Yrotation
				JOINT Neck
				{

					OFFSET     0.001840     0.072570     0.000595
					CHANNELS 3 Zrotation Xrotation Yrotation
					JOINT Head
					{

						OFFSET     0.003323     0.152818     0.030907
						CHANNELS 3 Zrotation Xrotation Yrotation
						JOINT joint7
						{

							OFFSET     0.000612     0.183936     0.002625
							CHANNELS 3 Zrotation Xrotation Yrotation
							End Site
							{
								OFFSET     0.000000     0.000000     0.018310
							}
						}

					}

				}

				JOINT LeftCollar
				{

					OFFSET     0.053456     0.093486     0.002205
					CHANNELS 3 Zrotation Xrotation Yrotation
					JOINT LeftShoulder
					{

						OFFSET     0.112884    -0.020868     0.002319
						CHANNELS 3 Zrotation Xrotation Yrotation
						JOINT LeftElbow
						{

							OFFSET     0.297302     0.003523    -0.020737
							CHANNELS 3 Zrotation Xrotation Yrotation
							JOINT LeftWrist
							{

								OFFSET     0.290007     0.004431    -0.007313
								CHANNELS 3 Zrotation Xrotation Yrotation
								JOINT lf_hand
								{

									OFFSET     0.117001    -0.002589    -0.008771
									CHANNELS 3 Zrotation Xrotation Yrotation
									End Site
									{
										OFFSET     0.000000    -0.009821     0.000000
									}
								}

							}

						}

					}

				}

				JOINT RightCollar
				{

					OFFSET    -0.048666     0.096092     0.000301
					CHANNELS 3 Zrotation Xrotation Yrotation
					JOINT RightShoulder
					{

						OFFSET    -0.115072    -0.022479    -0.001894
						CHANNELS 3 Zrotation Xrotation Yrotation
						JOINT RightElbow
						{

							OFFSET    -0.297072     0.004954    -0.020752
							CHANNELS 3 Zrotation Xrotation Yrotation
							JOINT RightWrist
							{

								OFFSET    -0.292425    -0.005826    -0.023258
								CHANNELS 3 Zrotation Xrotation Yrotation
								JOINT rt_hand
								{

									OFFSET    -0.118185    -0.001061    -0.015047
									CHANNELS 3 Zrotation Xrotation Yrotation
									End Site
									{
										OFFSET     0.000000    -0.009987     0.000000
									}
								}

							}

						}

					}

				}

			}

			JOINT joint13
			{

				OFFSET     0.125914     0.117470     0.000000
				CHANNELS 3 Zrotation Xrotation Yrotation
				End Site
				{
					OFFSET     0.000000     0.000000    -0.017144
				}
			}

			JOINT joint14
			{

				OFFSET    -0.120063     0.114907     0.000000
				CHANNELS 3 Zrotation Xrotation Yrotation
				End Site
				{
					OFFSET     0.000000     0.000000    -0.016479
				}
			}

		}

	}

	JOINT RightHip
	{

		OFFSET    -0.109283    -0.057257     0.000987
		CHANNELS 3 Zrotation Xrotation Yrotation
		JOINT RightKnee
		{

			OFFSET     0.002149    -0.429339     0.038617
			CHANNELS 3 Zrotation Xrotation Yrotation
			JOINT RightAnkle
			{

				OFFSET    -0.001765    -0.522522    -0.077092
				CHANNELS 3 Zrotation Xrotation Yrotation
				JOINT r_ball
				{

					OFFSET    -0.000000    -0.037315     0.142913
					CHANNELS 3 Zrotation Xrotation Yrotation
					End Site
					{
						OFFSET     0.000000     0.000000     0.014648
					}
				}

			}

		}

	}

	JOINT LeftHip
	{

		OFFSET     0.098180    -0.056757     0.003895
		CHANNELS 3 Zrotation Xrotation Yrotation
		JOINT LeftKnee
		{

			OFFSET     0.007057    -0.430531     0.035812
			CHANNELS 3 Zrotation Xrotation Yrotation
			JOINT LeftAnkle
			{

				OFFSET    -0.005475    -0.521755    -0.078136
				CHANNELS 3 Zrotation Xrotation Yrotation
				JOINT lf_ball
				{

					OFFSET     0.000065    -0.036737     0.143337
					CHANNELS 3 Zrotation Xrotation Yrotation
					End Site
					{
						OFFSET     0.000000     0.000000     0.014648
					}
				}

			}

		}

	}

}

MOTION
Frames: 10
Frame Time: 0.033333
    1.533642     0.985670     1.131908   -10.238848    16.550253    56.863712    -4.255002     1.086556     2.224531    -3.308900    -1.176486     6.744556     0.000000     0.000000     0.000000     0.000000     0.000000     0.000000    -5.340913   -21.625126   -15.640438     0.000000     0.000000     0.000000    18.621878     1.021505     3.115390   -88.465141    19.923395    34.716244     0.879526     1.836464   -51.178768     2.928200    12.171270     1.250448     0.000000     0.000000     0.000000   -23.999712     3.395165    -7.599763    58.676811    26.261377    22.755156    -1.584060     2.231059    71.039490   -29.318239    21.659302     9.716238     0.000000     0.000000     0.000000     0.000000     0.000000     0.000000     0.000000     0.000000     0.000000    -1.026551    -0.470593   -18.519405     0.000000     6.026310     0.000000   -39.161312    20.711073    21.446781     0.000000     0.000000     0.000000    -9.319386   -50.609200     7.469874    -0.011881    40.784538     0.011881     4.407265   -20.959492     5.259946     0.000000     0.000000     0.000000 
    1.588245     1.017686     1.172207   -10.502515    15.815995    57.989922    -2.894730     1.063539     0.558714    -2.021096    -2.394987     5.881067     0.000000     0.000000     0.000000     0.000000     0.000000     0.000000    -5.928243   -17.852137   -12.695308     0.000000     0.000000     0.000000    17.468071     0.963470     3.136656   -90.830750    20.997217    31.092279     0.836760     1.802649   -49.797081     5.901145    10.666883    -2.050291     0.000000     0.000000     0.000000   -22.986631     3.213307    -7.559430    61.467789    30.632389    18.399288    -1.355824     2.139883    65.029434   -28.247988    24.565958     7.886578     0.000000     0.000000     0.000000     0.000000     0.000000     0.000000     0.000000     0.000000     0.000000    -3.420920   -10.652418   -18.367695     0.000000    19.779266     0.000000   -29.359367    21.762945     8.841081     0.000000     0.000000     0.000000    -9.769760   -41.982063     7.167514     0.000000    33.968822     0.000000     5.059665   -17.489187     4.194584     0.000000     0.000000     0.000000 
    1.642670     1.048862     1.212890   -10.718158    14.915795    59.129562    -1.779319     0.649206    -0.808466    -0.902409    -3.177628     5.092388     0.000000     0.000000     0.000000     0.000000     0.000000     0.000000    -6.361840   -14.549886   -10.678104     0.000000     0.000000     0.000000    16.425367     1.012692     3.487751   -91.932892    21.332466    25.566420     0.796944     1.766844   -48.553291     9.454103     9.799374    -6.226023     0.000000     0.000000     0.000000   -22.332270     3.049050    -7.436596    65.391098    34.101368    12.105207    -1.186044     2.046489    60.185448   -26.772404    26.034874     5.907567     0.000000     0.000000     0.000000     0.000000     0.000000     0.000000     0.000000     0.000000     0.000000    -8.840670   -22.499819   -18.704905    -0.008456    38.677494     0.002968   -17.192123    15.801893    -2.990923     0.000000     0.000000     0.000000    -9.004412   -33.045219     6.701061     0.000000    26.421350     0.000000     4.183774   -17.701763     3.252455     0.000000     0.000000     0.000000 
    1.696880     1.076473     1.253998   -10.875693    13.890595    60.257496    -0.901795    -0.391276    -1.842935     0.020852    -3.423102     4.445897     0.000000     0.000000     0.000000     0.000000     0.000000     0.000000    -6.233310   -11.570885    -9.732565     0.000000     0.000000     0.000000    15.454955     1.025230     3.702234   -91.912842    22.350695    20.053806     0.794901     1.767723   -48.421810    11.291522     8.991177    -9.729716     0.000000     0.000000     0.000000   -22.159986     2.891499    -7.097843    70.906387    36.146378     3.226277    -1.055659     1.974771    56.610226   -24.849333    25.166174     3.753678     0.000000     0.000000     0.000000     0.000000     0.000000     0.000000     0.000000     0.000000     0.000000   -13.486518   -30.840042   -20.721151    -0.009909    50.270050     0.004649    -8.709219     7.464130    -8.941747     0.000000     0.000000     0.000000    -8.754813   -23.441942     5.680176     0.000000    18.076923     0.000000     3.990207   -17.672123     2.746161     0.000000     0.000000     0.000000 
    1.750836     1.097008     1.295573   -10.968961    12.781844    61.361439    -0.071858    -1.845594    -2.722851     0.932449    -3.349648     3.870050     0.000000     0.000000     0.000000     0.000000     0.000000     0.000000    -5.853997    -8.472552    -9.433410     0.000000     0.000000     0.000000    14.343803     0.902237     3.525311   -90.683792    24.214506    15.044404     0.834842     1.803410   -49.678280    10.361620     8.272531   -12.075819     0.000000     0.000000     0.000000   -22.318518     2.706558    -6.581289    77.714897    36.705318    -7.666470    -0.958807     1.898768    53.580982   -22.641830    22.731026     1.474068     0.000000     0.000000     0.000000     0.000000     0.000000     0.000000     0.000000     0.000000     0.000000   -13.185738   -31.585091   -23.741865     0.000000    44.878616     0.000000    -7.401676     1.870934    -7.942299     0.000000     0.000000     0.000000    -8.191639   -12.987294     4.559950     0.000000     7.750542     0.000000     3.815071   -16.420147     2.523970     0.000000     0.000000     0.000000 
    1.804501     1.096653     1.337653   -10.992278    11.655802    62.421764     0.481525    -3.339054    -3.415616     1.772556    -3.001808     3.252438     0.000000     0.000000     0.000000     0.000000     0.000000     0.000000    -5.541685    -5.927076    -9.752076     0.000000     0.000000     0.000000    13.158919     0.752071     3.160261   -88.096558    26.181950     9.527182     0.896325     1.851752   -51.654846     8.052677     7.858705   -14.014779     0.000000     0.000000     0.000000   -22.619526     2.561427    -6.156863    84.155930    35.898445   -18.493876    -0.885183     1.841686    51.338383   -20.565592    20.087511    -0.557637     0.000000     0.000000     0.000000     0.000000     0.000000     0.000000     0.000000     0.000000     0.000000   -10.834484   -29.489006   -26.876818     0.000000    32.806721     0.000000    -7.337957    -2.668497    -3.678240     0.000000     0.000000     0.000000    -7.045403    -5.241530     3.220985     0.000000     2.987816     0.000000     3.442937   -18.308632     3.235410     0.000000     0.000000     0.000000 
    1.857596     1.086102     1.381678   -10.932085    10.547677    63.423721     0.590720    -4.465823    -3.891129     2.460043    -2.424872     2.466896     0.000000     0.000000     0.000000     0.000000     0.000000     0.000000    -5.602580    -4.627748   -10.510066     0.000000     0.000000     0.000000    12.247149     0.652038     2.927887   -84.764893    27.982986     3.319996     0.976234     1.913732   -54.050930     5.715776     7.602335   -15.796247     0.000000     0.000000     0.000000   -22.940794     2.558860    -6.053029    88.977844    34.595493   -27.473898    -0.845100     1.806365    50.141808   -18.825735    18.655405    -2.170749     0.000000     0.000000     0.000000     0.000000     0.000000     0.000000     0.000000     0.000000     0.000000    -8.718052   -27.854891   -29.379404     0.000000    20.823708     0.000000    -6.256915    -7.128415     0.213659     0.000000     0.000000     0.000000    -5.461600    -1.775570     1.246237     0.000000     6.159793     0.000000     4.715364   -20.066793     4.739512     0.000000     0.000000     0.000000 
    1.909929     1.059032     1.428465   -10.808951     9.516896    64.353439    -0.064073    -5.123068    -4.092934     3.017409    -1.372384     1.302881     0.000000     0.000000     0.000000     0.000000     0.000000     0.000000    -6.333979    -5.137456   -12.207385     0.000000     0.000000     0.000000    11.963052     0.686044     3.121920   -81.357841    29.365717    -3.647913     1.060572     1.972103   -56.538242     4.710033     7.317150   -17.693890     0.000000     0.000000     0.000000   -23.269285     2.772800    -6.442147    92.152817    33.827339   -34.773472    -0.861365     1.821885    50.605526   -17.264576    19.038429    -3.378268     0.000000     0.000000     0.000000     0.000000     0.000000     0.000000     0.000000     0.000000     0.000000    -7.807332   -27.774546   -30.830591     0.000000    10.509207     0.000000    -5.051262   -12.430613     1.330577     0.000000     0.000000     0.000000    -3.478776     1.417709    -1.048861     0.000000    10.670727     0.000000     5.105385   -25.275963     6.839092     0.000000     0.000000     0.000000 
    1.961592     1.022317     1.477128   -10.610065     8.607778    65.193130    -1.259815    -5.487410    -4.060206     3.491180     0.066510    -0.114001     0.000000     0.000000     0.000000     0.000000     0.000000     0.000000    -7.429714    -6.883621   -14.719282     0.000000     0.000000     0.000000    13.073087     1.047189     4.401845   -79.394630    31.863831   -12.130286     1.170302     2.039126   -59.701550     6.269981     6.647746   -19.994200     0.000000     0.000000     0.000000   -23.675680     3.153862    -7.145776    94.406403    33.555782   -41.188419    -0.917678     1.864708    52.403305   -15.719244    20.432413    -4.373144     0.000000     0.000000     0.000000     0.000000     0.000000     0.000000     0.000000     0.000000     0.000000    -7.218008   -28.062435   -31.609800     0.000000     0.286846     0.000000    -4.484730   -18.001421     1.302683     0.000000     0.000000     0.000000    -1.230424     4.885713    -3.176063     0.000000    15.105612     0.000000     5.125508   -31.104856     8.745079     0.000000     0.000000     0.000000 
    2.012673     0.982831     1.526777   -10.021784     7.879286    66.035942    -2.468292    -5.714096    -3.955978     3.831343     1.444704    -1.385363     0.000000     0.000000     0.000000     0.000000     0.000000     0.000000    -8.295552    -8.981313   -16.924791     0.000000     0.000000     0.000000    15.066285     1.687887     6.237830   -78.820869    34.802490   -20.382853     1.298630     2.109764   -63.223785     9.351584     5.787819   -22.270592     0.000000     0.000000     0.000000   -24.082466     3.579332    -7.961219    96.004372    33.354485   -46.245262    -0.975621     1.913859    54.391979   -14.407733    22.166327    -5.238324     0.000000     0.000000     0.000000     0.000000     0.000000     0.000000     0.000000     0.000000     0.000000    -6.637545   -28.563595   -31.984133     0.000000    -7.785442     0.000000    -4.028107   -22.713421     1.232874     0.000000     0.000000     0.000000     1.093201     9.335007    -4.610999     0.000000    18.133301     0.000000     4.876202   -35.363239     9.476785     0.000000     0.000000     0.000000 
